<?xml version="1.0" standalone="no"?>
<!DOCTYPE svg PUBLIC "-//W3C//DTD SVG 20010904//EN"
 "http://www.w3.org/TR/2001/REC-SVG-20010904/DTD/svg10.dtd">
<svg version="1.0" xmlns="http://www.w3.org/2000/svg"
 width="888.000000pt" height="371.000000pt" viewBox="0 0 888.000000 371.000000"
 preserveAspectRatio="xMidYMid meet">

<g transform="translate(0.000000,371.000000) scale(0.100000,-0.100000)"
fill="#000000" stroke="none">
<path d="M3480 3065 c0 -98 1 -105 20 -105 19 0 20 7 20 105 0 98 -1 105 -20
105 -19 0 -20 -7 -20 -105z"/>
<path d="M4830 2910 l0 -149 -36 -7 c-19 -3 -49 -4 -67 -2 -54 9 -57 4 -57
-87 0 -117 -2 -115 86 -115 l74 0 0 -365 c0 -386 2 -408 48 -458 49 -54 184
-84 327 -72 l85 7 0 103 0 103 -69 4 c-38 2 -76 10 -85 17 -14 12 -16 51 -16
337 l0 324 85 0 85 0 0 100 0 100 -85 0 -85 0 0 155 0 155 -145 0 -145 0 0
-150z"/>
<path d="M5830 2789 c-214 -37 -361 -175 -417 -389 -20 -79 -22 -277 -4 -365
40 -184 155 -308 351 -376 94 -32 284 -33 385 -2 153 48 295 181 320 301 l7
32 -151 0 c-140 0 -150 -1 -156 -20 -8 -25 -61 -69 -105 -87 -50 -22 -169 -19
-223 5 -86 38 -147 129 -147 219 l0 33 401 0 402 0 -7 108 c-8 132 -27 207
-73 295 -58 111 -161 192 -293 231 -68 21 -217 28 -290 15z m231 -260 c21 -10
48 -29 60 -42 29 -29 59 -95 59 -129 l0 -28 -240 0 c-235 0 -240 0 -240 20 0
29 26 88 56 127 26 35 69 61 119 74 45 12 143 0 186 -22z"/>
<path d="M7134 2781 c-60 -16 -134 -64 -172 -113 l-37 -49 -3 70 -3 71 -139 0
-140 0 -2 -536 c-2 -295 0 -540 3 -545 3 -6 66 -8 145 -7 l139 3 5 355 c4 314
7 360 23 395 40 89 113 131 217 123 64 -5 97 -22 134 -72 20 -26 21 -42 24
-417 l3 -389 149 0 150 0 0 400 c0 257 -4 418 -11 452 -25 118 -92 198 -198
239 -61 23 -229 35 -287 20z"/>
<path d="M1645 2773 c-119 -16 -239 -93 -305 -194 -122 -189 -131 -484 -22
-694 93 -178 265 -267 459 -237 152 24 264 105 328 236 l35 71 0 -327 c0 -321
0 -328 20 -328 19 0 20 9 22 715 2 393 2 720 0 725 -2 6 -12 10 -23 10 -18 0
-19 -9 -19 -146 l0 -147 -35 70 c-65 131 -166 208 -307 237 -76 16 -94 17
-153 9z m230 -78 c202 -96 306 -365 249 -642 -51 -247 -204 -373 -441 -361
-73 3 -101 9 -149 33 -155 76 -244 252 -244 485 0 59 7 133 15 169 34 142 119
262 221 311 69 34 100 40 199 36 74 -2 101 -8 150 -31z"/>
<path d="M4115 2770 c-139 -22 -235 -92 -295 -215 l-29 -60 -1 128 c0 120 -1
127 -20 127 -20 0 -20 -7 -20 -540 0 -533 0 -540 20 -540 20 0 20 7 20 318 0
174 5 347 10 385 29 202 170 343 356 355 137 9 248 -38 311 -132 55 -81 56
-89 60 -523 4 -390 5 -403 24 -403 18 0 19 11 19 393 0 468 -5 496 -97 598
-51 56 -105 85 -195 103 -83 17 -88 17 -163 6z"/>
<path d="M2430 2342 c0 -440 2 -457 55 -542 26 -41 82 -93 125 -115 41 -21
146 -45 202 -45 158 0 300 83 360 210 13 27 27 49 31 50 5 0 7 -52 5 -115 -3
-114 -3 -115 20 -115 l22 0 0 540 c0 524 -1 540 -19 540 -18 0 -19 -14 -23
-357 -4 -328 -6 -363 -25 -420 -44 -131 -124 -222 -232 -263 -81 -30 -231 -26
-303 9 -64 31 -116 84 -147 150 l-26 56 -3 413 c-3 400 -4 412 -23 412 -18 0
-19 -11 -19 -408z"/>
<path d="M3480 2210 c0 -533 0 -540 20 -540 20 0 20 7 20 540 0 533 0 540 -20
540 -20 0 -20 -7 -20 -540z"/>
<path d="M4690 960 l0 -410 24 0 25 0 3 213 c3 211 3 212 30 253 34 53 70 81
122 95 78 21 167 -11 198 -71 9 -17 14 -94 18 -255 5 -229 5 -230 28 -233 l22
-3 0 213 c0 117 -5 231 -10 252 -26 113 -144 170 -273 132 -41 -12 -65 -27
-96 -61 l-41 -45 0 165 0 165 -25 0 -25 0 0 -410z"/>
<path d="M6590 960 c0 -403 0 -410 20 -410 20 0 20 7 20 410 0 403 0 410 -20
410 -20 0 -20 -7 -20 -410z"/>
<path d="M7150 960 c0 -395 1 -410 19 -410 17 0 19 13 24 193 3 107 10 210 17
232 17 55 84 120 139 135 89 24 176 -13 207 -87 10 -24 14 -89 14 -253 l0
-221 23 3 c22 3 22 4 25 197 3 218 -6 289 -43 337 -50 65 -141 88 -238 60 -44
-13 -65 -26 -101 -67 l-46 -51 0 171 c0 164 -1 171 -20 171 -20 0 -20 -7 -20
-410z"/>
<path d="M6858 1238 l-3 -93 -52 -3 c-45 -3 -53 -6 -53 -23 0 -16 7 -19 55
-19 l55 0 0 -235 c0 -154 4 -243 11 -259 15 -32 66 -56 118 -56 34 0 41 3 41
20 0 15 -7 20 -27 20 -97 1 -103 17 -103 290 l0 220 65 0 c58 0 65 2 65 20 0
18 -7 20 -65 20 l-65 0 0 95 c0 88 -2 95 -20 95 -18 0 -20 -8 -22 -92z"/>
<path d="M5491 1149 c-107 -33 -180 -138 -189 -272 -9 -151 38 -258 138 -310
50 -26 62 -29 136 -25 65 3 90 10 126 31 50 29 97 92 105 143 5 29 3 34 -15
34 -14 0 -24 -10 -31 -32 -30 -85 -105 -137 -198 -138 -65 0 -92 10 -142 55
-43 39 -71 104 -71 167 l0 38 236 0 237 0 -5 63 c-9 106 -59 191 -138 232 -39
20 -144 28 -189 14z m140 -44 c74 -26 121 -87 138 -180 l8 -45 -215 0 -215 0
7 41 c14 85 71 159 142 184 51 18 82 18 135 0z"/>
<path d="M6116 1149 c-22 -5 -54 -18 -72 -30 -57 -35 -100 -159 -56 -159 13 0
22 12 30 39 17 56 46 87 99 105 59 20 97 20 156 0 61 -21 77 -45 77 -115 0
-80 -12 -88 -162 -105 -140 -17 -191 -37 -227 -89 -31 -45 -33 -128 -5 -176
32 -54 65 -71 146 -77 100 -6 150 9 203 62 l43 44 7 -34 c7 -40 38 -64 82 -64
26 0 33 4 33 20 0 14 -7 20 -23 20 -45 0 -47 11 -47 241 0 208 -1 217 -23 249
-12 19 -36 42 -53 52 -36 21 -153 31 -208 17z m224 -431 c-25 -86 -102 -137
-206 -138 -95 0 -154 49 -154 128 0 46 27 88 69 108 19 9 87 23 150 31 63 8
122 18 130 23 14 7 16 0 19 -53 2 -34 -2 -79 -8 -99z"/>
</g>
</svg>
